<svg xmlns="http://www.w3.org/2000/svg" id="Layer_1" data-name="Layer 1" viewBox="0 0 284.02 81.48"><defs><style>      .cls-1 {        fill-rule: evenodd;      }      .cls-1, .cls-2 {        fill: #fff;        stroke-width: 0px;      }    </style></defs><path class="cls-1" d="M155.76,66.72c36.43-3.94,64.82-3.02,111.56,6.92-45.58-13.1-75.8-13.89-109.73-10.37-.58,1.17-1.19,2.32-1.83,3.44M.33,70.29c15.86,2.13,48.41,11.39,114,2.05,11.51-1.74,21.91-3.25,31.63-4.46.66-1.04,1.32-2.2,1.99-3.49-13.57,1.66-27.98,3.87-44.36,6.16-53.38,7.44-89.79-.33-103.26-.25"></path><path class="cls-2" d="M197.47,24.36l-1.87,5.23c-1.03-.2-2.41-.45-3.2-.45-3.15,0-6.31,2.53-9.74,7.2-1.68,2.22-2.9,4.58-4.11,7.2-1.86,4.04-3.55,9.61-4.93,13.69-1.73.21-5.16,1.33-6.72,1.89,1.03-2.76,4.09-10.79,6.51-17.51,1.73-4.83,2.55-7.37,3.09-9.83.21-.95-.18-1.48-1.49-.71-.35.21-1.3.78-1.96,1.18l-1.21-2.6c3.8-1.78,8.59-4.5,11.6-7.04.94,3.63.08,5.13-.89,9.38l2.42-2.37c5.48-5.44,7.53-6.09,10.16-6.09.57,0,1.67.32,2.33.82M153.02,68.3c-2.48,3.49-5.64,6.64-9.26,9.01-3.92,2.38-7.87,4.16-11.89,4.17-3.82.01-5.56-2.54-5.42-4.76.09-1.44.48-2.19.88-2.83,2.31,2.13,4.87,3.45,7.83,3.44,8.14-.04,15.3-8.19,20.88-29.54-3.81,3.74-5.25,5.19-8.47,7.57-3.29,2.28-6.2,3.61-8.34,3.55-2.67-.07-3.83-2.35-3.79-5.15.04-2.99,1.67-7.71,4.12-11.14,2.86-4.08,6.78-8.24,11.33-11.39,6-4.41,13.49-6.82,20.78-7.26,4.84-.29,4.62,1.86,3.59,4.52l-1.14.79c-1.46-.16-3.05-.26-4.88-.26-5.02,0-9.61,1.05-13.23,2.48-4.07,1.63-7.31,5-9.24,7.19-3.26,3.5-5.38,9.16-5.47,11.51-.1,6.11,3.55,3.8,6.46,1.43,2.27-1.85,4.23-4.23,6.28-7.05,1.8-2.61,3.77-5.89,4.89-8.88.77-2.07.99-4.05,1.29-5.71.2.18.42.39.64.62.97,1.03,1.99,2.47,2.19,3.79.3,2.02-.5,4.52-3.1,8.72l3.97-.55c-1.51,5.39-5.03,16.44-10.89,25.73M133.55,50.79l1.5,2.25c-2.85,2.06-7.53,4.4-13.45,5.64.41-4.87,1.03-5.53,3.03-10.86-1.95,1.94-4.38,4.3-7.97,6.91-3.26,2.34-6.15,3.84-9.33,3.9-2.38.05-3.06-2.15-3.06-4.48,0-3.95,1.55-8.2,5.2-12.85,3.67-4.58,8.11-8.99,13.65-11.95,5.81-3.09,11.59-5.32,17.78-5.59,5.24-.23,4,2.34,2.21,5.52-1.85-.31-4.34-.49-6.08-.49-8.27,0-14.38,3.08-20.82,9.76-5.05,5.3-6.08,10.67-6.08,12.6,0,2.09.46,2.65,1.64,2.78,1.2.14,2.63-.65,5.19-2.92,2.55-2.26,4.8-4.97,6.82-7.95,2.79-4.14,4.77-9.06,5.78-13.5.31.18.59-.3,1.07-.23.29.04.8.58,1.02.79.8.75,1.11,2.44,1.07,3.5-.1,2.45-.63,4.69-3.03,8.09,1.31-.09,2.61-.63,4.58-1.38l-1.13,2.35c-2.59,5.57-2.98,6.76-3.49,8.12-.33.88-.63,2.09-.04,2.04.68-.05,2.18-1.03,3.92-2.02M69.36,21.34c1.1-1.38,4-8.52,4.2-12.8.08-1.72-.12-2.9-1.18-2.98-1.18-.09-1.9,1.27-2.64,3.51-.96,2.92-1.29,7.94-.38,12.27M122.81,1.44l-3.65,12.05-2.82-.47c.98-3.29,1.35-4.47-2.36-4.47-2.96,0-5.36,1.85-8.03,4.76-2.61,2.97-4.24,6.58-5.77,11.38-.77,2.83-1.81,7.45-2.94,14.07-.49,2.39-1.5,8.41-1.92,12.38,0,3,3.8.72,5.33.04l1.6,2.65c-1.19.47-4.75,1.89-7.74,2.99-2.28.83-4.67,1.76-6.41,2.51,0-4.43.63-8.08,1.78-14.45,1.15-6.36,1.89-9.89,3.09-15.93-5.36,6.49-8.44,10.38-14.04,17.29l-8.55,10.47-1.41,1.81-2.03-1.59c1.44-2.68,1.58-4.06,1.6-5.81.08-5.79-1.82-12.33-3.17-18.08-4.22,4.82-11.48,13.77-20.01,18.98-10.84,6.67-21.09,8.64-32.95,3.31C4.43,51.02.13,44.47,0,35.14c-.08-5.7,1.78-11.8,6.12-15.62,4.39-3.94,10.44-6.49,17.5-6.49,4.07,0,8.27.73,11.58,2.22,3.93,1.61,8.29,5.04,13.56,9.22,1.97,1.59,3.25,1.91,4.23,1.91,1.17,0,2.99-.98,5.45-2.38l1.67,2.41-11.46,6.35-1.64-1.69c-6.92-6.25-17.27-14-27.83-13.79-9.21.19-15.23,6.31-15.13,15.92.06,6.31,2.12,9.88,6.13,13.8,4.73,4.08,9.81,5.8,17.07,5.97,16.26.39,28.29-11.65,37.46-23.85-.51-2.83-.79-4.69-.84-6.59-.18-7.28,2.5-13.36,2.79-14.08C68.35,3.78,71.54.03,74,0c6.53-.09,4.21,10.25,2.14,15.03-.49,1.29-2.87,6.18-6.26,11.25,1.63,6.93,3.38,13.68,4.57,20.78,6.91-8.63,14.17-17.35,21.17-25.93,4.52-5.36,7.3-8.7,9.18-10.68,5.02-5.44,10.34-9.01,18-9.01"></path><path class="cls-2" d="M260.34,7.22c-.41.83-4.02,7.93-6.11,11.62l-1.42,2.35-2.41-1.96c1.04-2.68,1.32-2.69,1.56-4.7.13-1.04-.7-1.63-2.8-1.63-1.47,0-2.88.59-4.65,2.39-2.46,2.85-2.93,6.08-1.41,10.1,1.91,4.76,3.85,7.58,3.81,13.36-.03,4.5-1.77,9.07-7.05,14.11-3.28,2.94-6.46,5.57-10.93,5.78-4.08.19-6.69-2.49-6.86-5.88-.18-3.61,1.09-5.67,1.92-7.45,2.15,4.3,4.16,7.17,7.78,7.32,1.81.08,3.97-.77,5.87-2.36,3.1-3.18,3.82-6.38,2.36-10.89-1.43-4.41-4.67-9.28-4.23-13.65.48-4.84,2.05-7.64,5.15-11.74,4.47-5.53,8.32-7.18,14.89-7.28,1.24-.02,3.42.31,4.53.5"></path><path class="cls-2" d="M284.02,7.24c-.41.83-4.02,7.93-6.11,11.62l-1.42,2.35-2.41-1.96c1.04-2.68,1.32-2.69,1.56-4.7.12-1.04-.7-1.63-2.8-1.63-1.47,0-2.88.59-4.65,2.4-2.46,2.84-2.93,6.07-1.41,10.1,1.91,4.76,3.85,7.58,3.81,13.36-.03,4.5-1.77,9.07-7.05,14.11-3.28,2.94-6.46,5.57-10.93,5.78-4.08.19-6.69-2.49-6.86-5.88-.18-3.61,1.09-5.67,1.92-7.45,2.15,4.3,4.16,7.17,7.79,7.32,1.81.08,3.97-.77,5.87-2.36,3.1-3.18,3.82-6.38,2.36-10.89-1.43-4.41-4.68-9.28-4.23-13.65.48-4.84,2.05-7.64,5.15-11.74,4.47-5.53,8.32-7.18,14.89-7.28,1.24-.02,3.42.31,4.53.5"></path><path class="cls-2" d="M216.72,50.83l1.5,2.25c-2.85,2.06-7.53,4.4-13.45,5.64.41-4.87,1.03-5.53,3.03-10.86-1.95,1.94-4.38,4.3-7.97,6.91-15.39,11.05-14.99-3.5-7.19-13.43,3.67-4.58,8.11-8.99,13.65-11.95,5.81-3.09,11.59-5.32,17.78-5.59,5.24-.23,4,2.34,2.21,5.52-1.85-.31-4.34-.49-6.08-.49-8.27,0-14.38,3.07-20.82,9.76-5.05,5.3-6.08,10.67-6.08,12.6,0,2.09.46,2.65,1.64,2.78,1.2.14,2.63-.65,5.19-2.92,2.54-2.26,4.8-4.97,6.82-7.96,2.79-4.14,4.77-9.06,5.78-13.5.31.18.59-.3,1.07-.23.29.04.8.58,1.02.79.8.75,1.11,2.44,1.07,3.49-.1,2.45-.63,4.69-3.03,8.09,1.31-.09,2.61-.63,4.58-1.38l-1.13,2.35c-2.59,5.57-2.98,6.76-3.49,8.12-.33.88-.63,2.09-.04,2.04.68-.05,2.18-1.03,3.92-2.02"></path></svg>